<svg xmlns="http://www.w3.org/2000/svg" version="1.1" xmlns:xlink="http://www.w3.org/1999/xlink" xmlns:svgjs="http://svgjs.dev/svgjs" width="1500" height="1218" viewBox="0 0 1500 1218"><g transform="matrix(1,0,0,1,0.5212852794779792,0.49311740890686906)"><svg viewBox="0 0 304 247" data-background-color="#1f4451" preserveAspectRatio="xMidYMid meet" height="1218" width="1500" xmlns="http://www.w3.org/2000/svg" xmlns:xlink="http://www.w3.org/1999/xlink"><g id="tight-bounds" transform="matrix(1,0,0,1,-0.1056471499742031,-0.09999999999999432)"><svg viewBox="0 0 304.2112942999484 247.2" height="247.2" width="304.2112942999484"><g><svg viewBox="0 0 395.52 321.3968246149255" height="247.2" width="304.2112942999484"><g transform="matrix(1,0,0,1,0,238.83521071747523)"><svg viewBox="0 0 395.52 82.56161389745026" height="82.56161389745026" width="395.52"><g id="textblocktransform"><svg viewBox="0 0 395.52 82.56161389745026" height="82.56161389745026" width="395.52" id="textblock"><g><svg viewBox="0 0 395.52 82.56161389745026" height="82.56161389745026" width="395.52"><g transform="matrix(1,0,0,1,0,0)"><svg width="395.52" viewBox="2.15 -36.75 178.43 37.25" height="82.56161389745026" data-palette-color="#ffffff"><path d="M8-14.2L3.55-14.2Q2.8-14.2 2.75-14.45 2.7-14.7 2.7-15.3L2.7-15.3 2.7-34.05Q2.7-34.2 2.73-34.6 2.75-35 3.3-35L3.3-35 7.95-35Q11.1-35 13.15-33.98 15.2-32.95 16.18-30.78 17.15-28.6 17.15-25.1L17.15-25.1Q17.15-22 16.43-19.93 15.7-17.85 14.43-16.6 13.15-15.35 11.5-14.78 9.85-14.2 8-14.2L8-14.2ZM2.15 0L2.15 0 2.15-34.2Q2.15-34.2 2.27-34.6 2.4-35 3-35L3-35 5.4-35Q6-35 6.1-34.6 6.2-34.2 6.2-34.2L6.2-34.2 6.2-0.8Q6.2-0.4 6.03-0.25 5.85-0.1 5-0.05 4.15 0 2.15 0ZM15.45 0.1L15.45 0.1Q15 0.1 14.38 0.08 13.75 0.05 13.05 0L13.05 0Q12.8-4.3 12.03-7.23 11.25-10.15 10.38-11.88 9.5-13.6 8.85-14.35 8.2-15.1 8.2-15.1L8.2-15.1Q8.2-15.1 8.1-15.4 8-15.7 8.5-16L8.5-16 10.7-17.2Q11.3-17.2 11.55-16.75L11.55-16.75Q11.55-16.75 12.35-15.85 13.15-14.95 14.25-13.03 15.35-11.1 16.3-8.1 17.25-5.1 17.5-0.9L17.5-0.9Q17.5-0.35 17.2-0.13 16.9 0.1 15.45 0.1ZM6.1-31.45L6.1-17.95 8.4-17.95Q9.8-17.95 10.73-18.68 11.65-19.4 12.15-21.03 12.65-22.65 12.65-25.3L12.65-25.3Q12.65-27.2 12.3-28.6 11.95-30 11.08-30.73 10.2-31.45 8.7-31.45L8.7-31.45 6.1-31.45ZM28.05 0.5L28.05 0.5Q26.35 0.5 24.87 0.03 23.4-0.45 22.32-1.7 21.25-2.95 20.67-5.25 20.1-7.55 20.1-11.2L20.1-11.2Q20.1-15.9 20.85-18.75 21.6-21.6 22.85-23.05 24.1-24.5 25.7-25 27.3-25.5 28.95-25.5L28.95-25.5Q32.1-25.5 33.7-23.5 35.3-21.5 35.3-17.45L35.3-17.45Q35.3-15.8 35.17-14.05 35.05-12.3 34.7-10.95L34.7-10.95Q33-10.6 30.9-10.45 28.8-10.3 26.9-10.23 25-10.15 23.77-10.15 22.55-10.15 22.55-10.15L22.55-10.15 22.6-13.45Q22.6-13.45 23.55-13.43 24.5-13.4 25.87-13.43 27.25-13.45 28.67-13.58 30.1-13.7 31.1-14L31.1-14Q31.25-14.7 31.3-15.5 31.35-16.3 31.35-17L31.35-17Q31.3-19.7 30.72-20.83 30.15-21.95 28.5-21.95L28.5-21.95Q27.65-21.95 26.87-21.48 26.1-21 25.5-19.83 24.9-18.65 24.57-16.6 24.25-14.55 24.25-11.35L24.25-11.35Q24.25-9 24.52-7.45 24.8-5.9 25.37-5.05 25.95-4.2 26.82-3.83 27.7-3.45 28.95-3.45L28.95-3.45Q30.45-3.45 31.92-3.85 33.4-4.25 34.6-5L34.6-5Q34.85-4.4 34.92-3.63 35-2.85 35-2.25L35-2.25Q35-1.5 34.05-0.85 33.1-0.2 31.52 0.15 29.95 0.5 28.05 0.5ZM38.84 0L38.84 0 38.84-23.8Q39.84-24.25 41.2-24.63 42.55-25 43.99-25.25 45.45-25.5 46.8-25.5L46.8-25.5Q49.39-25.5 50.95-24.83 52.49-24.15 53.14-22.7 53.8-21.25 53.8-18.8L53.8-18.8 53.8-0.8Q53.8-0.4 53.59-0.25 53.39-0.1 52.55-0.05 51.7 0 49.59 0L49.59 0 49.59-17.6Q49.59-19.95 49.05-20.95 48.49-21.95 46.64-21.95L46.64-21.95Q45.8-21.95 44.74-21.75 43.7-21.55 42.89-21.05L42.89-21.05 42.89-0.8Q42.89-0.4 42.72-0.25 42.55-0.1 41.7-0.05 40.84 0 38.84 0ZM65.84 0.5L65.84 0.5Q64.19 0.5 62.74 0.13 61.29-0.25 60.14-1.48 58.99-2.7 58.37-5.13 57.74-7.55 57.74-11.6L57.74-11.6Q57.74-16.55 58.77-19.63 59.79-22.7 61.52-24.1 63.24-25.5 65.39-25.5L65.39-25.5Q66.54-25.5 67.44-25.25 68.34-25 68.94-24.5L68.94-24.5 68.94-34.9Q68.94-35.85 69.27-36.23 69.59-36.6 70.49-36.68 71.39-36.75 72.99-36.75L72.99-36.75 72.99-1Q71.79-0.4 69.97 0.05 68.14 0.5 65.84 0.5ZM65.99-3.15L65.99-3.15Q66.84-3.15 67.59-3.33 68.34-3.5 68.94-3.9L68.94-3.9 68.94-21.3Q68.49-21.7 67.97-21.83 67.44-21.95 66.64-21.95L66.64-21.95Q65.84-21.95 65.04-21.55 64.24-21.15 63.59-20.08 62.94-19 62.59-17.07 62.24-15.15 62.24-12.05L62.24-12.05Q62.24-9.2 62.49-7.45 62.74-5.7 63.24-4.78 63.74-3.85 64.42-3.5 65.09-3.15 65.99-3.15ZM84.69 0.5L84.69 0.5Q82.99 0.5 81.52 0.03 80.04-0.45 78.97-1.7 77.89-2.95 77.32-5.25 76.74-7.55 76.74-11.2L76.74-11.2Q76.74-15.9 77.49-18.75 78.24-21.6 79.49-23.05 80.74-24.5 82.34-25 83.94-25.5 85.59-25.5L85.59-25.5Q88.74-25.5 90.34-23.5 91.94-21.5 91.94-17.45L91.94-17.45Q91.94-15.8 91.82-14.05 91.69-12.3 91.34-10.95L91.34-10.95Q89.64-10.6 87.54-10.45 85.44-10.3 83.54-10.23 81.64-10.15 80.42-10.15 79.19-10.15 79.19-10.15L79.19-10.15 79.24-13.45Q79.24-13.45 80.19-13.43 81.14-13.4 82.52-13.43 83.89-13.45 85.32-13.58 86.74-13.7 87.74-14L87.74-14Q87.89-14.7 87.94-15.5 87.99-16.3 87.99-17L87.99-17Q87.94-19.7 87.37-20.83 86.79-21.95 85.14-21.95L85.14-21.95Q84.29-21.95 83.52-21.48 82.74-21 82.14-19.83 81.54-18.65 81.22-16.6 80.89-14.55 80.89-11.35L80.89-11.35Q80.89-9 81.17-7.45 81.44-5.9 82.02-5.05 82.59-4.2 83.47-3.83 84.34-3.45 85.59-3.45L85.59-3.45Q87.09-3.45 88.57-3.85 90.04-4.25 91.24-5L91.24-5Q91.49-4.4 91.57-3.63 91.64-2.85 91.64-2.25L91.64-2.25Q91.64-1.5 90.69-0.85 89.74-0.2 88.17 0.15 86.59 0.5 84.69 0.5ZM107.24 0L94.94 0Q94.94 0 94.61-0.48 94.29-0.95 94.29-2L94.29-2Q94.29-2.45 94.36-2.8 94.44-3.15 94.59-3.55L94.59-3.55 104.34-21.55 99.19-21.55Q97.79-21.55 96.61-21.5 95.44-21.45 94.64-21.35L94.64-21.35Q94.54-21.95 94.51-22.45 94.49-22.95 94.49-23.25L94.49-23.25Q94.49-24.15 94.79-24.58 95.09-25 95.79-25L95.79-25 108.49-25Q108.49-25 108.71-24.7 108.94-24.4 108.94-23.75L108.94-23.75Q108.94-23.45 108.84-22.98 108.74-22.5 108.44-21.75L108.44-21.75 99.04-3.75 103.44-3.75Q105.54-3.75 106.74-3.93 107.94-4.1 108.69-4.3L108.69-4.3Q108.79-3.95 108.81-3.4 108.84-2.85 108.84-2.5L108.84-2.5Q108.79-1.25 108.51-0.63 108.24 0 107.24 0L107.24 0ZM117.79 0.3L117.79 0.3Q117.04 0.3 116.66-0.4 116.29-1.1 115.99-2.15L115.99-2.15 110.89-23.75Q110.79-24.4 110.94-24.65 111.09-24.9 112.04-24.95 112.99-25 115.24-25L115.24-25 116.84-17Q117.19-15.05 117.56-12.85 117.94-10.65 118.21-8.72 118.49-6.8 118.64-5.58 118.79-4.35 118.79-4.35L118.79-4.35 118.89-4.35Q118.89-4.35 119.04-5.58 119.19-6.8 119.44-8.72 119.69-10.65 120.04-12.85 120.39-15.05 120.79-17L120.79-17 122.14-24.1Q122.24-24.55 122.41-24.73 122.59-24.9 123.46-24.95 124.34-25 126.39-25L126.39-25 120.64 0.15Q120.09 0.25 119.19 0.28 118.29 0.3 117.79 0.3ZM135.53 0.5L135.53 0.5Q133.63 0.5 132.16 0.03 130.68-0.45 129.68-1.8 128.68-3.15 128.18-5.73 127.68-8.3 127.68-12.5L127.68-12.5Q127.68-19.35 129.88-22.43 132.08-25.5 135.98-25.5L135.98-25.5Q138.63-25.5 140.36-24.4 142.08-23.3 142.93-20.5 143.78-17.7 143.78-12.65L143.78-12.65Q143.78-5.65 141.68-2.58 139.58 0.5 135.53 0.5ZM135.63-2.95L135.63-2.95Q136.73-2.95 137.56-3.73 138.38-4.5 138.88-6.6 139.38-8.7 139.38-12.6L139.38-12.6Q139.38-16.6 138.98-18.63 138.58-20.65 137.83-21.35 137.08-22.05 135.83-22.05L135.83-22.05Q134.73-22.05 133.88-21.28 133.03-20.5 132.56-18.4 132.08-16.3 132.08-12.4L132.08-12.4Q132.08-9.35 132.33-7.45 132.58-5.55 133.01-4.58 133.43-3.6 134.13-3.28 134.83-2.95 135.63-2.95ZM154.83 0.5L154.83 0.5Q151.83 0.5 150.23-0.4 148.63-1.3 148.01-3.15 147.38-5 147.38-7.8L147.38-7.8 147.38-24.2Q147.38-24.6 147.53-24.75 147.68-24.9 148.56-24.95 149.43-25 151.53-25L151.53-25 151.53-7.45Q151.53-5.85 151.81-4.88 152.08-3.9 152.81-3.48 153.53-3.05 154.88-3.05L154.88-3.05Q155.58-3.05 156.53-3.25 157.48-3.45 158.28-3.95L158.28-3.95 158.28-24.2Q158.28-24.6 158.46-24.75 158.63-24.9 159.46-24.95 160.28-25 162.33-25L162.33-25 162.33-1.3Q160.88-0.5 158.88 0 156.88 0.5 154.83 0.5ZM172.18 0.5L172.18 0.5Q169.53 0.5 167.8-0.13 166.08-0.75 166.08-2.05L166.08-2.05Q166.08-2.5 166.23-3.13 166.38-3.75 166.78-4.4L166.78-4.4Q167.88-3.75 169.1-3.45 170.33-3.15 171.78-3.15L171.78-3.15Q173.68-3.15 174.75-3.93 175.83-4.7 175.83-6.25L175.83-6.25Q175.83-7.25 175.4-8.2 174.98-9.15 173.83-10.15L173.83-10.15 168.98-14.3Q167.28-15.7 166.7-17.03 166.13-18.35 166.13-19.6L166.13-19.6Q166.13-21.35 167-22.68 167.88-24 169.7-24.75 171.53-25.5 174.28-25.5L174.28-25.5Q176.88-25.5 178.2-25 179.53-24.5 180.05-23.88 180.58-23.25 180.58-22.7L180.58-22.7Q180.58-21.65 179.68-20.65L179.68-20.65Q178.58-21.35 177.38-21.65 176.18-21.95 174.78-21.95L174.78-21.95Q172.98-21.95 171.9-21.33 170.83-20.7 170.83-19.55L170.83-19.55Q170.83-18.9 171.2-18.2 171.58-17.5 172.83-16.45L172.83-16.45 177.48-12.7Q179.13-11.15 179.78-9.75 180.43-8.35 180.43-6.45L180.43-6.45Q180.43-3.15 178.23-1.33 176.03 0.5 172.18 0.5Z" opacity="1" transform="matrix(1,0,0,1,0,0)" fill="#ffffff" class="wordmark-text-0" data-fill-palette-color="primary" id="text-0"></path></svg></g></svg></g></svg></g></svg></g><g transform="matrix(1,0,0,1,97.83321020371685,0)"><svg viewBox="0 0 199.8535795925663 199.8535795925663" height="199.8535795925663" width="199.8535795925663"><g><svg></svg></g><g id="icon-0"><svg viewBox="0 0 199.8535795925663 199.8535795925663" height="199.8535795925663" width="199.8535795925663"><g><path d="M0 99.927c0-55.188 44.739-99.927 99.927-99.927 55.188 0 99.927 44.739 99.927 99.927 0 55.188-44.739 99.927-99.927 99.927-55.188 0-99.927-44.739-99.927-99.927zM99.927 192.408c51.076 0 92.481-41.405 92.481-92.481 0-51.076-41.405-92.481-92.481-92.482-51.076 0-92.481 41.405-92.482 92.482 0 51.076 41.405 92.481 92.482 92.481z" data-fill-palette-color="accent" fill="#08c076" stroke="transparent"></path></g><g transform="matrix(1,0,0,1,44.689924452800156,43.174590279297064)"><svg viewBox="0 0 110.47373068696598 113.50439903397216" height="113.50439903397216" width="110.47373068696598"><g><svg xmlns="http://www.w3.org/2000/svg" xmlns:sodipodi="http://sodipodi.sourceforge.net/DTD/sodipodi-0.dtd" viewBox="6.201 5 87.59692000000001 90" x="0" y="0" height="113.50439903397216" width="110.47373068696598" class="icon-cg-0" data-fill-palette-color="accent" id="cg-0"><path d="M93.798 7.92C93.798 6.307 92.491 5 90.878 5L9.121 5C7.508 5 6.201 6.307 6.201 7.92c0 1.613 1.307 2.92 2.92 2.92l74.701 0-25.519 25.519 0-6.57c0-1.613-1.307-2.92-2.92-2.92-1.613 0-2.92 1.307-2.92 2.92l0 13.626c0 1.613 1.307 2.92 2.92 2.92l13.626 0c1.613 0 2.92-1.307 2.92-2.92 0-1.613-1.307-2.92-2.92-2.92l-6.57 0 30.568-30.568c0.508-0.508 0.791-1.232 0.791-2.007z" color="#08C076" fill="#08c076" data-fill-palette-color="accent"></path><path d="M6.201 92.08C6.201 93.693 7.508 95 9.121 95l81.757 0c1.613 0 2.92-1.307 2.92-2.92 0-1.613-1.307-2.92-2.92-2.92l-74.701 0 25.519-25.519 0 6.57c0 1.613 1.307 2.92 2.92 2.92 1.613 0 2.92-1.307 2.92-2.92l0-13.626c0-1.613-1.307-2.92-2.92-2.92l-13.626 0c-1.613 0-2.92 1.307-2.92 2.92 0 1.613 1.307 2.92 2.92 2.92l6.57 0L6.992 90.073C6.484 90.581 6.201 91.305 6.201 92.08z" color="#08C076" fill="#08c076" data-fill-palette-color="accent"></path></svg></g></svg></g></svg></g></svg></g><g></g></svg></g><defs></defs></svg><rect width="304.2112942999484" height="247.2" fill="none" stroke="none" visibility="hidden"></rect></g></svg></g></svg>